<?xml version="1.0" encoding="UTF-8" standalone="no"?>
<svg
   width="64"
   height="64"
   viewBox="0 0 64 64"
   fill="none"
   version="1.1"
   id="svg4282"
   sodipodi:docname="icon-generator.svg"
   inkscape:version="1.2.1 (9c6d41e410, 2022-07-14)"
   xmlns:inkscape="http://www.inkscape.org/namespaces/inkscape"
   xmlns:sodipodi="http://sodipodi.sourceforge.net/DTD/sodipodi-0.dtd"
   xmlns="http://www.w3.org/2000/svg"
   xmlns:svg="http://www.w3.org/2000/svg">
  <defs
     id="defs4286" />
  <sodipodi:namedview
     id="namedview4284"
     pagecolor="#505050"
     bordercolor="#eeeeee"
     borderopacity="1"
     inkscape:showpageshadow="0"
     inkscape:pageopacity="0"
     inkscape:pagecheckerboard="0"
     inkscape:deskcolor="#505050"
     showgrid="false"
     inkscape:zoom="8.0234375"
     inkscape:cx="13.398247"
     inkscape:cy="55.337877"
     inkscape:window-width="2560"
     inkscape:window-height="1377"
     inkscape:window-x="-8"
     inkscape:window-y="-8"
     inkscape:window-maximized="1"
     inkscape:current-layer="svg4282" />
  <path
     d="M2.70502 14.064C4.05413 8.44265 8.44314 4.05364 14.0644 2.70453C25.8543 -0.125046 38.1464 -0.125046 49.9363 2.70453C55.5576 4.05364 59.9466 8.44265 61.2958 14.064C64.1253 25.8539 64.1253 38.1459 61.2958 49.9358C59.9466 55.5572 55.5576 59.9462 49.9363 61.2953C38.1464 64.1248 25.8543 64.1248 14.0644 61.2953C8.44314 59.9462 4.05413 55.5572 2.70502 49.9358C-0.124558 38.1459 -0.124558 25.8539 2.70502 14.064Z"
     fill="#37C171"
     id="path4266"
     style="fill:#d14360;fill-opacity:1" />
  <path
     id="rect4278"
     style="fill:#ffffff;fill-opacity:1;stroke:none;stroke-width:0.912465"
     d="m 12.781787,19.008068 v 25.983864 h 22.53539 v -0.0018 h 5.19499 v -5.19499 h 5.196773 v -5.196774 h 5.196773 V 29.401614 H 45.70894 V 24.20484 h -5.196773 v 5.196774 h -5.19499 V 24.20484 h 5.19499 v -5.196772 h -5.19499 z M 45.70894,24.20484 h 5.196773 V 19.008068 H 45.70894 Z m 0,15.59032 v 5.19499 h 5.196773 v -5.19499 z" />
  <path
     fill-rule="evenodd"
     clip-rule="evenodd"
     d="m 30.019133,28.217758 7.411772,13.123577 H 22.60736 v -1.26e-4 h -6.176477 l 4.941181,-9.186378 3.13346,5.825607 z"
     fill="#37c171"
     id="path4280"
     style="fill:#d14360;fill-opacity:1;stroke-width:1.17974" />
  <circle
     style="fill:#d14360;fill-opacity:1;stroke:none;stroke-width:4.83857;stroke-linecap:round;stroke-miterlimit:8"
     id="path5716"
     cx="19.449875"
     cy="25.676157"
     r="3.0182295" />
</svg>
