<?xml version="1.0" encoding="UTF-8" standalone="no"?>
<!-- Created with Inkscape (http://www.inkscape.org/) -->

<svg
   width="35.277771mm"
   height="35.277771mm"
   viewBox="0 0 35.277771 35.277771"
   version="1.1"
   id="svg9119"
   xml:space="preserve"
   xmlns:inkscape="http://www.inkscape.org/namespaces/inkscape"
   xmlns:sodipodi="http://sodipodi.sourceforge.net/DTD/sodipodi-0.dtd"
   xmlns="http://www.w3.org/2000/svg"
   xmlns:svg="http://www.w3.org/2000/svg"><sodipodi:namedview
     id="namedview9121"
     pagecolor="#505050"
     bordercolor="#eeeeee"
     borderopacity="1"
     inkscape:showpageshadow="0"
     inkscape:pageopacity="0"
     inkscape:pagecheckerboard="0"
     inkscape:deskcolor="#505050"
     inkscape:document-units="mm"
     showgrid="false" /><defs
     id="defs9116" /><g
     inkscape:label="Layer 1"
     inkscape:groupmode="layer"
     id="layer1"
     transform="translate(-154.23186,-175.28419)"><rect
       style="fill:#d97726;fill-opacity:1;fill-rule:evenodd;stroke:none;stroke-width:1.64092;stroke-linecap:square"
       id="rect9311"
       width="35.277775"
       height="35.277775"
       x="154.23186"
       y="175.28419" /><g
       style="fill:#ffffff;fill-opacity:1"
       id="g9257"
       transform="matrix(0.26458333,0,0,0.26458333,266.30703,169.67264)"><path
         style="fill:#ffffff;fill-opacity:1;stroke-width:3.12899"
         d="m -390.0666,70.212251 c 4.95602,1.513843 7.22767,-5.920654 2.27166,-7.434497 l -13.87711,-4.24292 c -4.95664,-1.515022 -7.22829,5.919474 -2.27165,7.434497 z"
         id="path10160" /><path
         style="fill:#ffffff;fill-opacity:1;stroke-width:3.12899"
         d="m -390.63575,91.785604 c 5.18162,0 5.18162,-7.772428 0,-7.772428 h -14.51542 c -5.18161,0 -5.18161,7.772428 0,7.772428 h 14.50917 z"
         id="path10158" /><path
         style="fill:#ffffff;fill-opacity:1;stroke-width:3.12899"
         d="m -322.65412,105.71137 c -4.95602,-1.51385 -7.22767,5.92064 -2.27166,7.43449 l 13.87398,4.24292 c 4.84753,1.31564 7.02854,-5.81238 2.27478,-7.4345 z"
         id="path10156" /><path
         style="fill:#ffffff;fill-opacity:1;stroke-width:3.12899"
         d="m -321.28232,83.260596 c -5.18372,0 -5.18372,7.775557 0,7.775557 h 14.50915 c 5.18372,0 5.18372,-7.775557 0,-7.775557 z"
         id="path10154" /><path
         style="fill:#ffffff;fill-opacity:1;stroke-width:4.246"
         d="m -357.1884,116.13735 c -5.01029,0 -9.59598,-0.92138 -13.74857,-2.7684 -3.55026,-1.56007 -6.70377,-3.89944 -9.22658,-6.84457 -0.43823,-0.53553 -0.40719,-1.31404 0.0722,-1.81304 l 5.82977,-6.114248 c 0.59444,-0.628414 1.58801,-0.526509 2.123,0.157094 1.44364,1.847014 3.22697,3.409554 5.35846,4.674854 2.63678,1.57103 5.77033,2.35654 9.39642,2.35654 2.56884,0 4.61541,-0.37365 6.13124,-1.12519 1.58376,-0.81948 2.37352,-2.08055 2.37352,-3.79168 0.0255,-1.03018 -0.36729,-2.026772 -1.08699,-2.764159 -0.72182,-0.823726 -2.1782,-1.469119 -4.35215,-1.948918 l -8.70432,-1.842768 c -5.73635,-1.231342 -9.82526,-3.07411 -12.26672,-5.532548 -2.37352,-2.530621 -3.55815,-5.774572 -3.55815,-9.736097 0,-2.802366 0.78976,-5.430645 2.37352,-7.889083 1.64745,-2.462685 4.08891,-4.441325 7.32011,-5.944413 3.22697,-1.571022 7.25219,-2.356534 12.06717,-2.356534 9.51105,0 16.47026,2.86181 20.87337,8.585429 0.4021,0.540194 0.34817,1.293534 -0.12739,1.770586 l -6.11,6.173696 c -0.61143,0.615671 -1.60924,0.48829 -2.13574,-0.199563 -1.27313,-1.685742 -2.90839,-3.0642 -4.78526,-4.033708 -2.22842,-1.276133 -4.75213,-1.946586 -7.32011,-1.944671 -5.80429,0 -8.70432,1.672927 -8.70432,5.018781 0,1.095471 0.46282,2.050822 1.38421,2.870301 0.92137,0.751544 2.60279,1.401183 5.04425,1.944673 l 10.08852,2.152726 c 4.87865,1.023287 8.37737,2.768397 10.48339,5.22259 2.11026,2.394749 3.16752,5.294772 3.16752,8.71281 0,4.91687 -1.91071,8.9803 -5.73636,12.19029 -3.75772,3.21423 -9.16713,4.81922 -16.21974,4.81922 z"
         id="path10152" /></g></g></svg>
