<svg width="32" height="32" viewBox="0 0 24 24" fill="none" stroke="currentColor" stroke-width="2" stroke-linecap="round" stroke-linejoin="round" class="feather icon-sm" xmlns="http://www.w3.org/2000/svg"><g style="fill:#000000;fill-opacity:1;stroke:none" transform="matrix(0.22609089,0,0,0.22609089,48.387053,-8.0417504)"><path style="color:#000000;" d="m -206.14033,56.340562 c -0.20085,0.0023 -0.40525,0.01103 -0.60011,0.03371 -0.77941,0.09075 -1.50148,0.34194 -2.12399,0.72148 -1.24499,0.75908 -2.08168,1.955543 -2.48134,3.263518 -0.39966,1.307977 -0.37876,2.767517 0.22924,4.092883 0.608,1.325366 1.85433,2.45573 3.52649,2.966835 l 14.38241,4.396309 c 1.67209,0.510751 3.33356,0.273769 4.57837,-0.485481 1.2448,-0.75925 2.08171,-1.962348 2.48134,-3.270261 0.39965,-1.307915 0.37196,-2.767604 -0.23599,-4.092883 -0.60795,-1.32528 -1.84764,-2.449342 -3.51974,-2.960093 l -14.38241,-4.396309 c -0.62706,-0.191664 -1.25175,-0.276626 -1.85427,-0.269712 z m 44.03726,6.297781 c -4.99105,0 -9.16967,0.81242 -12.51464,2.440896 -3.34937,1.558056 -5.87796,3.61018 -7.58566,6.162924 -1.64168,2.548344 -2.46113,5.274176 -2.46113,8.179024 0,4.106399 1.228,7.464072 3.68832,10.087239 2.53075,2.548343 6.7708,4.461756 12.71693,5.738127 l 9.02188,1.908214 c 2.25345,0.497344 3.76271,1.16899 4.51093,2.022842 0.74602,0.764346 1.15249,1.797831 1.12606,2.865691 0,1.7737 -0.81944,3.0816 -2.46113,3.93105 -1.57126,0.77902 -3.68895,1.16651 -6.35172,1.16651 -3.7587,0 -7.01015,-0.81916 -9.74336,-2.44764 -2.20944,-1.31157 -4.0529,-2.92676 -5.54932,-4.841335 -0.55456,-0.7086 -1.58872,-0.813216 -2.20491,-0.16182 l -6.04156,6.331485 c -0.4969,0.51725 -0.52841,1.32612 -0.0742,1.88124 2.61506,3.05284 5.88121,5.47631 9.56129,7.09344 4.30446,1.91456 9.06077,2.87243 14.2543,2.87243 7.31053,0 12.92142,-1.66464 16.81656,-4.99642 3.96556,-3.32739 5.94715,-7.53933 5.94715,-12.63601 0,-3.543036 -1.09631,-6.546293 -3.28374,-9.028618 -2.18305,-2.543943 -5.81234,-4.353765 -10.8694,-5.414473 l -10.4581,-2.231869 c -2.53074,-0.563365 -4.2706,-1.237071 -5.22568,-2.016099 -0.95507,-0.849446 -1.43622,-1.838045 -1.43622,-2.973578 0,-3.468211 3.00533,-5.205446 9.02188,-5.205446 2.66189,-0.002 5.28249,0.693298 7.5924,2.016099 1.94552,1.004962 3.63628,2.433151 4.95597,4.18054 0.54575,0.713008 1.57785,0.847213 2.21164,0.209027 l 6.33823,-6.398923 c 0.49294,-0.494498 0.54493,-1.274094 0.12812,-1.834043 -4.56413,-5.932933 -11.77206,-8.900504 -21.63093,-8.900504 z m 33.5522,19.527166 c -1.74872,0 -3.26559,0.717091 -4.23447,1.807072 -0.96888,1.089981 -1.41599,2.482274 -1.41599,3.850143 0,1.367866 0.44711,2.753418 1.41599,3.843399 0.96888,1.089982 2.48575,1.807072 4.23447,1.807072 h 15.03646 c 1.74875,0 3.26562,-0.71709 4.23449,-1.807072 0.96888,-1.089981 1.41599,-2.475533 1.41599,-3.843399 0,-1.367869 -0.44711,-2.760162 -1.41599,-3.850143 -0.96887,-1.089981 -2.48574,-1.807072 -4.23449,-1.807072 z m -79.82133,0.782166 c -1.74819,0 -3.25914,0.710651 -4.22774,1.800329 -0.96861,1.089678 -1.41599,2.482681 -1.41599,3.850142 0,1.36746 0.44738,2.753722 1.41599,3.8434 0.9686,1.089678 2.47955,1.807072 4.22774,1.807072 h 15.0432 0.007 c 1.74821,0 3.26589,-0.717394 4.23449,-1.807072 0.9686,-1.089678 1.41599,-2.475939 1.41599,-3.8434 0,-1.367462 -0.44739,-2.760464 -1.41599,-3.850142 -0.9686,-1.089678 -2.48628,-1.800329 -4.23449,-1.800329 z m 77.01633,22.291715 c -0.20084,0.002 -0.39853,0.0177 -0.59336,0.0405 -0.77935,0.091 -1.50833,0.34188 -2.13073,0.72148 -1.24482,0.75925 -2.07496,1.9556 -2.47461,3.26352 -0.39964,1.30791 -0.3787,2.76761 0.22925,4.09289 0.60796,1.32528 1.84768,2.44933 3.51974,2.96009 l 14.38241,4.39631 a 1.6218742,1.6218742 0 0 0 0.0472,0.0202 c 1.64312,0.44594 3.25939,0.17203 4.47048,-0.58662 1.2111,-0.75868 2.02771,-1.93208 2.42067,-3.21633 0.39295,-1.28425 0.37018,-2.71899 -0.20903,-4.02546 -0.5792,-1.30644 -1.76007,-2.4305 -3.3714,-2.98031 a 1.6218742,1.6218742 0 0 0 -0.0472,-0.0135 l -14.38914,-4.40305 c -0.62704,-0.19153 -1.25176,-0.27717 -1.85428,-0.26971 z" /></g></svg>
